# xmcd CD database file
#
# Track frame offsets:
#	150
#	41917
#	63765
#	90535
#	121875
#	152965
#	189206
#	218492
#	245251
#	281455
#	302255
#
# Disc length: 4581 seconds
#
# Revision: 0
# Processed by: cddbd v1.4PL0 Copyright (c) Steve Scherf et al.
# Submitted via: CDex 1.50
#
DISCID=8511e30b
DTITLE=Paul Hanmer - Naivasha
DYEAR=2000
DGENRE=Jazz
TTITLE0=The Ballad of Christinah and William
TTITLE1=You Must Neva
TTITLE2=Unspoken Secrets
TTITLE3=Naivasha
TTITLE4=Catherine Wheel
TTITLE5=Raatiep
TTITLE6=Severn
TTITLE7=Cape Spanish Inquisition
TTITLE8=Fanfare for J
TTITLE9=The 3 Mafuta's
TTITLE10=Untitled
EXTD=YEAR: 2000
EXTT0=
EXTT1=
EXTT2=
EXTT3=
EXTT4=
EXTT5=
EXTT6=
EXTT7=
EXTT8=
EXTT9=
EXTT10=
PLAYORDER=
